PathFileType	4	(X/Y/Z)	C:\Users\WrightLab\Desktop\Jo\P3_10.trc
DataRate	CameraRate	NumFrames	NumMarkers	Units	OrigDataRate	OrigDataStartFrame	OrigNumFrames
100.00	100.00	       14	19	mm	100.00	238	       633
Frame#	Time	Headset_Front			Headset_Back			Headset_Left			Headset_Right			Left_Shoulder			Right_Shoulder			Sternum			C7			Left Elbow			Right Elbow			Left Wrist			Right Wrist			Left ASIS			Right ASIS			S2			Left Knee			Right Knee			Left Ankle			Right Ankle			
		X1	Y1	Z1	X2	Y2	Z2	X3	Y3	Z3	X4	Y4	Z4	X5	Y5	Z5	X6	Y6	Z6	X7	Y7	Z7	X8	Y8	Z8	X9	Y9	Z9	X10	Y10	Z10	X11	Y11	Z11	X12	Y12	Z12	X13	Y13	Z13	X14	Y14	Z14	X15	Y15	Z15	X16	Y16	Z16	X17	Y17	Z17	X18	Y18	Z18	X19	Y19	Z19	

238	2.370	-294.25494	1491.02039	380.71661	-384.14215	1587.20581	109.16196	-245.34789	1535.41663	187.69455	-426.43423	1528.49805	317.80219	-220.75163	1309.05432	88.78143	-541.29578	1328.16516	247.44138	-319.91953	1197.99902	281.02139	-406.67264	1371.42407	126.40234	-158.13025	976.27545	83.96755	-638.65985	987.94342	278.21561	-122.91059	814.80219	212.43637	-568.77063	806.62238	401.90768	-252.99788	833.45068	191.26414	-453.00333	855.83472	345.35794	-478.62872	922.04230	94.16754	-370.98969	428.96707	72.69571	-386.43210	456.70364	417.37021	-320.67957	132.90559	479.67242	-485.13507	129.41866	-27.85435	
239	2.380	-291.48053	1491.67346	389.41229	-381.23282	1586.05969	117.20596	-242.78258	1534.80188	196.21439	-423.06180	1528.71338	326.31152	-216.63362	1308.61926	97.73426	-537.14435	1326.84167	256.69745	-315.39426	1197.79602	290.34921	-402.93988	1370.10608	135.78149	-155.43535	975.94647	91.51210	-633.70807	986.46857	288.18765	-119.26334	812.91901	217.43318	-562.80377	804.66980	410.05911	-247.70045	833.06274	201.97429	-446.85849	855.02252	356.46912	-473.00375	920.91455	104.60336	-366.57632	428.95966	79.66421	-379.68796	454.91245	425.50479	-316.98038	128.34148	479.89786	-483.70059	131.96161	-25.17734	
240	2.390	-288.49261	1491.56677	398.06454	-378.24188	1584.96362	125.33624	-239.39726	1534.06421	205.47620	-419.44925	1528.00903	334.60199	-213.49455	1307.93677	106.99741	-533.55664	1325.77222	266.42157	-311.21899	1197.81299	300.57431	-399.47281	1369.18689	145.26765	-151.54376	974.96869	99.49926	-628.39801	985.08649	298.09842	-115.35280	811.49371	224.15279	-557.81866	803.26306	419.77579	-241.96375	832.83527	212.69974	-441.41772	854.65179	367.80045	-467.15976	919.89130	115.26738	-361.82443	428.70874	87.37617	-372.93604	453.30508	433.55261	-313.54120	124.44462	480.35068	-481.20694	134.50211	-24.01284	
241	2.400	-284.43851	1492.01355	406.17828	-375.21994	1584.06848	133.57980	-236.24918	1533.34399	213.42821	-416.83536	1528.16870	343.19788	-209.88219	1307.76941	116.37852	-529.97119	1324.75134	276.19168	-306.42947	1197.89661	310.93961	-396.23593	1368.14917	154.35861	-148.65948	974.79694	107.29818	-623.58356	983.48987	308.12164	-111.55622	810.24377	229.99292	-552.62372	801.98871	429.37219	-238.44073	831.89008	223.12703	-435.99127	854.93054	379.34299	-460.89105	918.28595	125.90515	-356.74005	428.58890	95.69589	-365.96481	451.09860	440.76923	-307.85764	122.02943	483.56180	-478.77942	137.30424	-20.85399	
242	2.410	-281.13547	1492.85547	414.93082	-372.19696	1583.47864	141.90129	-233.44527	1533.25488	221.24713	-413.49695	1528.22485	351.97699	-206.30591	1307.14038	125.63673	-526.45782	1324.10327	286.17438	-302.20761	1197.98584	320.43918	-393.09198	1367.39539	164.16878	-144.59256	974.15485	115.72933	-618.58148	982.53174	317.71707	-107.97405	808.48657	236.80064	-547.28186	801.00720	439.22482	-230.86507	831.80322	234.34262	-428.86020	853.99402	390.21136	-454.80173	918.12488	136.94917	-350.79553	428.37378	104.89525	-359.55493	449.05649	448.70493	-302.21222	120.95666	488.69437	-476.43350	140.21597	-18.29390	
243	2.420	-277.76218	1493.99829	423.91440	-368.98743	1583.31726	150.40639	-229.91113	1533.47583	230.54636	-410.15009	1529.05273	360.53705	-203.02159	1307.42932	135.52344	-522.67059	1322.98657	296.12253	-297.72253	1199.03235	331.07043	-390.33890	1367.34180	173.99963	-142.03020	974.40222	122.46296	-613.32806	981.41260	327.21387	-104.10475	807.12024	242.43375	-542.32129	799.98718	448.99692	-224.30481	831.86560	245.92120	-423.57150	854.75500	402.09863	-448.81448	917.43719	146.98672	-344.09198	427.72507	113.87389	-353.28680	448.53049	455.64914	-298.02081	119.93727	493.49304	-473.03568	143.23204	-13.18028	
244	2.430	-274.00024	1495.53784	432.60461	-365.81601	1583.64697	159.10478	-226.38754	1533.69556	240.18611	-406.53238	1529.52942	369.27661	-199.74887	1307.97095	143.90538	-519.22559	1322.68408	306.66245	-293.85132	1199.98413	341.31726	-386.83328	1367.37146	183.58757	-138.59601	974.10480	131.10229	-608.54614	980.61414	337.66687	-99.92499	805.93011	248.48334	-536.62231	798.83313	458.04156	-218.36960	832.16803	256.14258	-416.51422	853.96515	412.77225	-442.46042	917.46014	157.42461	-336.57639	427.14520	125.06100	-347.89594	448.96048	464.44525	-296.15622	118.63168	497.25827	-469.06671	146.75281	-8.32866	
245	2.440	-270.73349	1497.11816	441.85107	-362.67966	1584.22632	167.87228	-223.28320	1535.11694	248.99107	-403.04254	1531.06348	378.58484	-195.85660	1308.45996	153.45297	-515.41595	1322.98059	316.61307	-289.59198	1201.54089	351.48688	-383.59149	1367.44275	193.34758	-134.68161	974.91162	139.49115	-603.63403	980.21173	348.04599	-93.39956	805.46027	254.39734	-531.09186	797.71967	466.87900	-211.70541	832.69043	265.94061	-410.90048	855.21698	424.11697	-435.68198	917.65070	168.10233	-327.26053	426.07785	137.81198	-341.43317	449.06268	472.92383	-293.75223	117.19164	501.39935	-464.40347	151.03354	-3.42323	
246	2.450	-266.70493	1498.83533	450.81119	-359.55902	1585.07813	176.84973	-220.17693	1536.03125	257.94308	-399.30206	1532.59033	387.45837	-192.60205	1309.43921	163.16855	-511.95285	1323.17224	327.47833	-284.99509	1202.99316	361.93375	-380.35248	1368.40503	203.03436	-131.87193	976.01617	147.20694	-598.18195	979.97546	358.03796	-89.83129	805.91718	260.07120	-525.90112	798.41797	476.78540	-205.28049	833.42395	276.67740	-403.89853	855.01068	434.26193	-429.48422	918.54816	178.94493	-317.23392	425.49728	149.92262	-334.44302	450.02869	482.58392	-291.54230	116.71294	505.49268	-459.32895	155.75819	3.27304	
247	2.460	-263.84631	1501.22839	460.43649	-356.33160	1586.16003	185.99115	-216.55675	1537.53735	267.73129	-395.93350	1534.19800	396.70474	-188.85808	1311.29517	173.02121	-507.72421	1323.71643	337.62576	-281.25824	1204.77246	372.08463	-376.83035	1369.68530	213.42552	-128.37540	977.47064	154.89011	-592.90686	980.14453	368.07571	-86.80848	805.11444	265.77142	-520.51349	798.21411	486.27371	-201.22488	833.82092	286.79208	-396.77325	856.36597	443.77136	-423.55591	920.13898	188.72319	-305.88571	425.36230	161.99017	-327.07117	450.96994	493.42917	-289.66812	116.23909	508.80688	-454.09604	160.37724	9.68949	
248	2.470	-259.29346	1503.78320	469.39230	-353.05414	1587.48730	195.07848	-213.15121	1539.31750	276.81839	-392.20935	1536.17273	406.19110	-185.13609	1313.05042	182.26141	-503.86023	1324.95288	348.43835	-276.71664	1206.73157	382.22272	-373.18976	1370.83130	223.65810	-125.02386	979.40643	163.07701	-587.63727	981.36230	378.22165	-83.29593	805.78259	271.50400	-515.37585	798.87128	495.56204	-192.95270	836.33813	297.75790	-390.89029	857.92908	454.31235	-417.29639	921.52197	199.49120	-293.40857	423.89972	176.51837	-320.40134	452.02914	501.88214	-288.09280	116.53488	511.19312	-446.11478	165.86911	18.32559	
249	2.480	-255.02249	1506.17151	478.58566	-349.78137	1588.76062	204.37950	-209.99770	1541.06604	285.85751	-388.49820	1538.12585	415.94757	-181.04343	1315.95068	191.63310	-499.91888	1326.44202	358.81711	-272.65350	1208.39417	391.78918	-369.55881	1372.83838	233.56638	-121.59795	981.58508	171.46756	-582.54608	982.46515	388.76736	-79.78474	806.83594	277.35892	-509.71960	799.25189	505.18140	-187.31114	838.43048	307.92984	-384.63235	860.84998	462.33679	-411.19611	923.31525	209.37640	-279.63153	423.09399	191.29234	-316.04874	453.90268	510.04730	-287.43732	117.50977	514.03400	-437.67529	170.62837	27.75360	
250	2.490	-251.92490	1509.07300	488.32654	-346.47141	1590.02393	213.56596	-206.33339	1542.70105	295.62402	-384.56464	1540.12122	425.30432	-177.18112	1318.35132	200.90166	-495.45609	1328.29602	368.60748	-267.90042	1210.54041	401.93774	-366.38058	1374.84363	243.15634	-118.21470	983.68970	179.53865	-577.15729	984.28650	399.25122	-76.50078	807.92944	283.61240	-504.76199	800.64374	514.76141	-183.26569	839.97028	317.58569	-379.51956	863.61743	472.45813	-405.12903	924.92499	218.53052	-266.12573	422.03250	206.07756	-312.54654	454.18347	516.32300	-286.47003	117.79301	516.05261	-427.73279	175.90471	37.84965	
251	2.500	-247.41510	1511.00977	497.54572	-343.09219	1591.30872	222.85843	-202.67535	1544.17285	305.55069	-380.89545	1541.97998	434.64124	-173.14240	1320.69800	211.08615	-491.02377	1330.03821	378.35172	-263.70401	1212.92810	411.60489	-361.43295	1375.94812	252.95439	-115.13303	987.11487	187.15436	-571.84235	986.30731	409.98370	-73.41742	809.24573	289.37250	-499.19730	801.67444	523.90375	-176.26074	842.89294	329.59158	-374.43750	867.25836	480.59647	-399.41071	926.65112	228.00514	-252.30292	421.17590	222.31291	-310.15390	455.92337	521.45007	-285.10541	117.42979	517.60992	-417.77362	181.40904	47.58308	
